<?xml version="1.0" standalone="no"?><!DOCTYPE svg PUBLIC "-//W3C//DTD SVG 1.1//EN" "http://www.w3.org/Graphics/SVG/1.1/DTD/svg11.dtd"><svg t="1711199309843" class="icon" viewBox="0 0 1024 1024" version="1.1" xmlns="http://www.w3.org/2000/svg" p-id="5698" xmlns:xlink="http://www.w3.org/1999/xlink" width="128" height="128"><path d="M512 954.181818a442.181818 442.181818 0 1 1 442.181818-442.181818 442.181818 442.181818 0 0 1-442.181818 442.181818z m0-814.545454a372.363636 372.363636 0 1 0 372.363636 372.363636A372.363636 372.363636 0 0 0 512 139.636364zM651.636364 709.818182H372.363636a34.909091 34.909091 0 0 1 0-69.818182h279.272728a34.909091 34.909091 0 0 1 0 69.818182zM671.418182 370.269091m-52.829091 0a52.829091 52.829091 0 1 0 105.658182 0 52.829091 52.829091 0 1 0-105.658182 0ZM512 370.269091m-52.829091 0a52.829091 52.829091 0 1 0 105.658182 0 52.829091 52.829091 0 1 0-105.658182 0ZM352.581818 370.269091m-52.829091 0a52.829091 52.829091 0 1 0 105.658182 0 52.829091 52.829091 0 1 0-105.658182 0ZM671.418182 529.687273m-52.829091 0a52.829091 52.829091 0 1 0 105.658182 0 52.829091 52.829091 0 1 0-105.658182 0ZM512 529.687273m-52.829091 0a52.829091 52.829091 0 1 0 105.658182 0 52.829091 52.829091 0 1 0-105.658182 0ZM352.581818 529.687273m-52.829091 0a52.829091 52.829091 0 1 0 105.658182 0 52.829091 52.829091 0 1 0-105.658182 0Z" p-id="5699" fill="#8a8a8a"></path></svg>